<svg width="305" height="178" viewBox="0 0 305 178" fill="none" xmlns="http://www.w3.org/2000/svg">
<path d="M169.47 22.59H134.7C131.82 22.59 129.34 23.61 127.32 25.63C125.3 27.65 124.28 30.13 124.28 33.01V112.48C124.28 113.33 124.97 114.03 125.82 114.03H149.24C150.09 114.03 150.78 113.34 150.78 112.48V80.16H170.68C179.46 80.16 186.3 77.68 191.05 72.75C195.73 67.55 198.1 60.4 198.1 51.5C198.1 42.08 195.63 34.83 190.76 29.97C186.07 25.07 178.9 22.59 169.47 22.59ZM174.82 51.01C174.82 54.95 173.92 57.71 172.16 59.2C172.13 59.23 172.09 59.26 172.07 59.29C170.41 60.95 167.46 61.8 163.3 61.8H150.8V40.47H164.29C167.67 40.47 170.3 41.29 172.32 42.98C174 45 174.82 47.63 174.82 51.01Z" fill="white"/>
<path d="M117.2 22.62H99.41C93.6 22.62 89.86 25.34 88.59 30.49L71.75 84.34L53.25 23.79C53.04 23.1 52.38 22.62 51.62 22.62H26.27C25.72 22.62 25.21 22.87 24.89 23.29C24.57 23.71 24.49 24.26 24.67 24.75L55.79 109.14C58.02 113.94 62.98 114.1 63.7 114.1H85.21C85.93 114.1 86.58 113.66 86.81 113.01L118.8 24.75C118.98 24.26 118.89 23.72 118.57 23.3C118.26 22.87 117.74 22.62 117.2 22.62Z" fill="white"/>
<path d="M71.47 83.49L71.64 83.96L71.25 82.71L71.47 83.49Z" fill="url(#paint0_linear)"/>
<path d="M118.57 23.29C118.25 22.87 117.74 22.62 117.2 22.62H99.41C93.6 22.62 89.86 25.34 88.59 30.49L71.76 84.3L80.92 109.13C82.24 111.97 84.51 113.18 86.3 113.7C86.53 113.52 86.71 113.28 86.81 113L118.8 24.74C118.98 24.25 118.89 23.71 118.57 23.29Z" fill="url(#paint1_linear)"/>
<path d="M141.14 145.43C141.14 148.4 140.22 150.83 138.38 152.71C136.54 154.58 134.21 155.5 131.42 155.5C128.63 155.5 126.3 154.58 124.46 152.71C122.62 150.84 121.71 148.4 121.71 145.43V131.84C121.71 131.24 122.17 130.78 122.73 130.78C123.33 130.78 123.75 131.24 123.75 131.84V145.26C123.75 147.73 124.46 149.71 125.9 151.23C127.35 152.71 129.18 153.46 131.41 153.46C133.64 153.46 135.47 152.72 136.92 151.23C138.37 149.71 139.07 147.73 139.07 145.26V131.84C139.07 131.24 139.53 130.78 140.09 130.78C140.69 130.78 141.11 131.24 141.11 131.84V145.43H141.14Z" fill="white"/>
<path d="M154.41 137.94C154.41 138.4 154.02 138.86 153.32 138.86C152.9 138.86 151.62 138.54 150.67 138.54C148.27 138.54 147.14 139.63 147.14 142.07V154.22C147.14 154.82 146.72 155.32 146.12 155.32C145.55 155.32 145.1 154.83 145.1 154.22V141.96C145.1 138.57 147.11 136.56 150.65 136.56C151.82 136.56 152.77 136.67 153.58 136.91C154.13 137.09 154.41 137.41 154.41 137.94Z" fill="white"/>
<path d="M173.07 148.43C172.68 152.92 170.03 155.53 165.48 155.53C164.17 155.53 162.87 155.28 161.56 154.79C160.25 154.3 159.3 153.84 158.7 153.38C158.38 153.17 158.21 152.85 158.21 152.43V131.84C158.21 131.24 158.67 130.78 159.27 130.78C159.8 130.78 160.26 131.24 160.26 131.84V137.77C162.17 136.96 164 136.57 165.73 136.57C170.15 136.57 172.69 139.01 173.08 143.49C173.21 145.14 173.21 146.8 173.07 148.43ZM171.02 143.48C170.77 140.2 169.04 138.53 165.83 138.53C163.68 138.53 161.34 139.24 160.25 139.91V151.95C160.71 152.34 161.49 152.69 162.55 153.05C163.61 153.37 164.56 153.54 165.45 153.54C168.81 153.54 170.68 151.84 171.03 148.49C171.13 147.05 171.13 145.36 171.02 143.48Z" fill="white"/>
<path d="M191.19 152.6C191.19 153.02 191.05 153.34 190.73 153.55C189.46 154.5 186.77 155.49 183.67 155.49C179.33 155.49 176.89 153.3 176.89 149.66C176.89 146.3 179.43 143.94 183.85 143.94C185.37 143.94 187.13 144.22 189.15 144.75V143.23C189.15 139.98 187.63 138.6 184.35 138.6C182.97 138.6 181.45 138.95 179.83 139.62C178.95 140.01 178.28 139.51 178.28 138.81C178.28 138.35 178.49 138.03 178.92 137.79C180.51 136.98 182.35 136.55 184.36 136.55C188.92 136.55 191.21 138.53 191.21 142.91V152.6H191.19ZM189.15 151.96V146.77C187 146.17 185.3 145.89 183.99 145.89C180.7 145.89 178.94 147.44 178.94 149.7C178.94 152.21 180.64 153.48 183.99 153.48C185.82 153.48 188.02 152.81 189.15 151.96Z" fill="white"/>
<path d="M209.98 154.26C209.98 154.86 209.56 155.32 208.96 155.32C208.4 155.32 207.94 154.86 207.94 154.26V143.73C207.94 140.3 205.75 138.54 202.64 138.54C200.49 138.54 198.65 139 197.17 139.92V154.26C197.17 154.86 196.75 155.32 196.15 155.32C195.58 155.32 195.13 154.86 195.13 154.26V139.53C195.13 139.07 195.31 138.72 195.62 138.47C196.89 137.52 199.47 136.56 202.72 136.56C207.49 136.56 210 139.14 210 143.66V154.26H209.98Z" fill="white"/>
<path d="M215.91 133.21C215.35 133.78 214.43 133.78 213.9 133.21C213.37 132.65 213.37 131.73 213.9 131.2C214.43 130.63 215.35 130.63 215.91 131.2C216.48 131.73 216.48 132.65 215.91 133.21ZM215.95 154.26C215.95 154.86 215.49 155.32 214.89 155.32C214.33 155.32 213.9 154.86 213.9 154.26V137.87C213.79 136.49 215.98 136.49 215.95 137.87V154.26Z" fill="white"/>
<path d="M232.95 150.02C232.95 153.38 230.48 155.53 226.66 155.53C224.01 155.53 221.89 154.86 220.3 153.52C219.77 153.03 219.7 152.53 220.05 152C220.37 151.54 221.11 151.43 221.57 151.82C222.17 152.24 222.59 152.56 222.88 152.74C223.48 153.06 224.93 153.55 226.66 153.55C229.31 153.55 230.9 152.14 230.9 150.12C230.9 148.67 230.02 147.79 227.79 147.22L225 146.55C221.93 145.81 220.37 144.22 220.37 141.78C220.37 140.19 220.94 138.92 222.07 137.96C223.24 137.01 224.75 136.55 226.66 136.55C228.57 136.55 230.16 137.04 231.46 138C231.99 138.42 232.06 139.13 231.67 139.55C231.28 139.97 230.79 140.01 230.19 139.66C228.95 138.92 227.79 138.53 226.66 138.53C223.83 138.53 222.42 139.59 222.42 141.71C222.42 143.09 223.23 143.94 225.46 144.5L227.16 144.92C227.83 145.06 228.15 145.13 228.18 145.13C231.36 146.03 232.95 147.65 232.95 150.02Z" fill="white"/>
<path d="M261.12 154.26C261.12 154.86 260.7 155.32 260.1 155.32C259.53 155.32 259.08 154.86 259.08 154.26V143.2C259.08 140.09 257.56 138.54 254.56 138.54C252.83 138.54 251.2 139.14 249.69 140.38C249.9 141.26 250.01 142.15 250.01 143.03V154.26C250.01 154.86 249.59 155.32 248.99 155.32C248.42 155.32 247.97 154.86 247.97 154.26V143.2C247.97 139.99 246.56 138.54 243.59 138.54C240.69 138.54 239.25 139.49 238.96 139.78L238.89 139.85V154.26C238.89 154.86 238.43 155.32 237.83 155.32C237.26 155.32 236.84 154.86 236.84 154.26V139.5C236.84 139.04 237.05 138.65 237.51 138.33C239.06 137.16 241.04 136.56 243.48 136.56C245.74 136.56 247.51 137.27 248.78 138.64L250.19 137.72C250.9 137.3 252.87 136.55 254.61 136.55C259.03 136.55 261.14 138.92 261.14 143.01V154.26H261.12Z" fill="white"/>
<path d="M278.04 138.5C279.49 139.81 280.23 141.47 280.34 143.52C280.41 145.18 280.41 146.8 280.34 148.43C280.23 150.48 279.46 152.17 278.01 153.52C276.6 154.86 274.83 155.53 272.71 155.53C270.59 155.53 268.82 154.86 267.38 153.52C265.93 152.18 265.16 150.48 265.05 148.43C264.98 146.81 264.98 145.18 265.05 143.52C265.16 141.47 265.9 139.81 267.35 138.5C268.8 137.19 270.56 136.56 272.72 136.56C274.82 136.56 276.59 137.2 278.04 138.5ZM267.12 148.47C267.4 151.54 269.59 153.56 272.7 153.56C275.81 153.56 277.96 151.55 278.25 148.47C278.36 147.16 278.36 145.54 278.25 143.52C278.07 140.59 275.92 138.54 272.7 138.54C269.49 138.54 267.3 140.59 267.12 143.52C267.02 145.53 267.02 147.16 267.12 148.47Z" fill="white"/>
<path d="M278.73 113.95H260.94C255.13 113.95 251.39 111.23 250.12 106.08L233.29 52.23L214.79 112.78C214.58 113.47 213.92 113.95 213.16 113.95H187.8C187.25 113.95 186.74 113.7 186.42 113.28C186.1 112.86 186.02 112.31 186.2 111.82L217.32 27.43C219.55 22.63 224.51 22.47 225.23 22.47H246.74C247.46 22.47 248.11 22.91 248.34 23.56L280.33 111.82C280.51 112.31 280.42 112.85 280.1 113.27C279.79 113.69 279.28 113.95 278.73 113.95Z" fill="#63DB2B"/>
<path d="M233 53.07L233.17 52.6L232.79 53.85L233 53.07Z" fill="url(#paint2_linear)"/>
<path d="M280.1 113.28C279.78 113.7 279.27 113.95 278.73 113.95H260.94C255.13 113.95 251.39 111.23 250.12 106.08L233.3 52.26L242.46 27.43C243.78 24.59 246.05 23.38 247.84 22.86C248.07 23.04 248.25 23.28 248.35 23.56L280.34 111.82C280.51 112.31 280.42 112.85 280.1 113.28Z" fill="url(#paint3_linear)"/>
<defs>
<linearGradient id="paint0_linear" x1="71.2289" y1="83.5519" x2="71.664" y2="83.1169" gradientUnits="userSpaceOnUse">
<stop stop-color="#001F1F" stop-opacity="0.25"/>
<stop offset="0.00159166" stop-color="#021F1F" stop-opacity="0.2524"/>
<stop offset="0.038" stop-color="#341D24" stop-opacity="0.3073"/>
<stop offset="0.0761" stop-color="#5F1B29" stop-opacity="0.3647"/>
<stop offset="0.1172" stop-color="#86192C" stop-opacity="0.4266"/>
<stop offset="0.1607" stop-color="#A71730" stop-opacity="0.4921"/>
<stop offset="0.2073" stop-color="#C11632" stop-opacity="0.5623"/>
<stop offset="0.2582" stop-color="#D61534" stop-opacity="0.6389"/>
<stop offset="0.3155" stop-color="#E41536" stop-opacity="0.7253"/>
<stop offset="0.3846" stop-color="#EC1437" stop-opacity="0.8295"/>
<stop offset="0.4978" stop-color="#EF1437"/>
</linearGradient>
<linearGradient id="paint1_linear" x1="64.7141" y1="93.6787" x2="126.851" y2="31.5419" gradientUnits="userSpaceOnUse">
<stop stop-color="#737277" stop-opacity="0.6"/>
<stop offset="0.0466" stop-color="#97979A" stop-opacity="0.6375"/>
<stop offset="0.0975" stop-color="#B7B7B9" stop-opacity="0.6783"/>
<stop offset="0.1528" stop-color="#D1D1D3" stop-opacity="0.7228"/>
<stop offset="0.2132" stop-color="#E6E6E6" stop-opacity="0.7713"/>
<stop offset="0.2813" stop-color="#F4F4F4" stop-opacity="0.826"/>
<stop offset="0.3634" stop-color="#FCFCFD" stop-opacity="0.892"/>
<stop offset="0.4978" stop-color="white"/>
</linearGradient>
<linearGradient id="paint2_linear" x1="232.759" y1="53.0095" x2="233.194" y2="53.4443" gradientUnits="userSpaceOnUse">
<stop stop-color="#001F1F" stop-opacity="0.25"/>
<stop offset="0.00159166" stop-color="#021F1F" stop-opacity="0.2524"/>
<stop offset="0.038" stop-color="#341D24" stop-opacity="0.3073"/>
<stop offset="0.0761" stop-color="#5F1B29" stop-opacity="0.3647"/>
<stop offset="0.1172" stop-color="#86192C" stop-opacity="0.4266"/>
<stop offset="0.1607" stop-color="#A71730" stop-opacity="0.4921"/>
<stop offset="0.2073" stop-color="#C11632" stop-opacity="0.5623"/>
<stop offset="0.2582" stop-color="#D61534" stop-opacity="0.6389"/>
<stop offset="0.3155" stop-color="#E41536" stop-opacity="0.7253"/>
<stop offset="0.3846" stop-color="#EC1437" stop-opacity="0.8295"/>
<stop offset="0.4978" stop-color="#EF1437"/>
</linearGradient>
<linearGradient id="paint3_linear" x1="226.245" y1="42.8828" x2="288.381" y2="105.02" gradientUnits="userSpaceOnUse">
<stop stop-color="#001F1F" stop-opacity="0.5"/>
<stop offset="0.001476" stop-color="#01211F" stop-opacity="0.5015"/>
<stop offset="0.0428" stop-color="#184C22" stop-opacity="0.543"/>
<stop offset="0.0863" stop-color="#2C7224" stop-opacity="0.5867"/>
<stop offset="0.1333" stop-color="#3D9326" stop-opacity="0.6339"/>
<stop offset="0.1837" stop-color="#4BAD28" stop-opacity="0.6845"/>
<stop offset="0.2387" stop-color="#56C229" stop-opacity="0.7397"/>
<stop offset="0.3007" stop-color="#5DD02A" stop-opacity="0.802"/>
<stop offset="0.3754" stop-color="#62D82B" stop-opacity="0.8771"/>
<stop offset="0.4978" stop-color="#63DB2B"/>
</linearGradient>
</defs>
</svg>
